<svg xmlns="http://www.w3.org/2000/svg" xmlns:xlink="http://www.w3.org/1999/xlink" version="1.1" width="256" height="256" viewBox="0 0 256 256" xml:space="preserve">
<desc>Created with Fabric.js 1.7.22</desc>
<defs>
</defs>
<g transform="translate(128 128) scale(0.72 0.72)" style="">
	<g style="stroke: none; stroke-width: 0; stroke-dasharray: none; stroke-linecap: butt; stroke-linejoin: miter; stroke-miterlimit: 10; fill: none; fill-rule: nonzero; opacity: 1;" transform="translate(-175.05 -175.05000000000004) scale(3.89 3.89)" >
	<path d="M 69.338 50.092 c -1.172 -2.725 -3.24 -5.461 -7.703 -6.551 l -5.916 -0.996 c -0.387 -0.065 -0.756 -0.172 -1.102 -0.314 c -1.702 -0.701 -2.851 -2.272 -2.851 -4.054 l -0.037 -1.622 l -13.357 0.09 l -0.037 1.532 c 0 1.813 -1.188 3.407 -2.939 4.09 c -0.062 0.024 -0.124 0.047 -0.187 0.069 c -0.265 0.091 -0.541 0.162 -0.827 0.21 l -5.916 0.996 c -4.463 1.09 -6.542 3.851 -7.714 6.576 l 24.349 13.105 L 69.338 50.092 z" style="stroke: none; stroke-width: 1; stroke-dasharray: none; stroke-linecap: butt; stroke-linejoin: miter; stroke-miterlimit: 10; fill: rgb(134,220,255); fill-rule: nonzero; opacity: 1;" transform=" matrix(1 0 0 1 0 0) " stroke-linecap="round" />
	<path d="M 51.729 36.553 l 0.037 1.622 c 0 1.782 1.149 3.353 2.851 4.054 c -6.383 6.308 -12.799 6.359 -19.222 0.031 l 0.002 0.004 c 1.75 -0.683 2.939 -2.277 2.939 -4.09 l 0.037 -1.532 C 42.847 32.851 47.3 32.782 51.729 36.553 z" style="stroke: none; stroke-width: 1; stroke-dasharray: none; stroke-linecap: butt; stroke-linejoin: miter; stroke-miterlimit: 10; fill: rgb(231,197,176); fill-rule: nonzero; opacity: 1;" transform=" matrix(1 0 0 1 0 0) " stroke-linecap="round" />
	<path d="M 33.336 21.185 h -1.409 c -0.791 0 -1.432 0.641 -1.432 1.432 v 2.367 c 0 2.323 1.552 4.283 3.676 4.901 L 33.336 21.185 z" style="stroke: none; stroke-width: 1; stroke-dasharray: none; stroke-linecap: butt; stroke-linejoin: miter; stroke-miterlimit: 10; fill: rgb(231,197,176); fill-rule: nonzero; opacity: 1;" transform=" matrix(1 0 0 1 0 0) " stroke-linecap="round" />
	<path d="M 56.718 21.185 h 1.354 c 0.791 0 1.432 0.641 1.432 1.432 v 2.365 c 0 2.324 -1.552 4.284 -3.677 4.902 L 56.718 21.185 z" style="stroke: none; stroke-width: 1; stroke-dasharray: none; stroke-linecap: butt; stroke-linejoin: miter; stroke-miterlimit: 10; fill: rgb(231,197,176); fill-rule: nonzero; opacity: 1;" transform=" matrix(1 0 0 1 0 0) " stroke-linecap="round" />
	<path d="M 56.761 20.029 l -0.466 7.252 c -0.138 1.645 -0.558 3.221 -1.218 4.673 c -0.357 0.785 -0.784 1.533 -1.274 2.236 c -0.49 0.703 -1.044 1.361 -1.655 1.965 c -1.43 1.416 -3.172 2.535 -5.139 3.246 l 0 0 c -1.299 0.469 -2.721 0.469 -4.019 0 l 0 0 c -5.198 -1.878 -8.825 -6.612 -9.285 -12.12 l -0.439 -7.252 V 10.97 h 23.495 V 20.029 z" style="stroke: none; stroke-width: 1; stroke-dasharray: none; stroke-linecap: butt; stroke-linejoin: miter; stroke-miterlimit: 10; fill: rgb(244,211,190); fill-rule: nonzero; opacity: 1;" transform=" matrix(1 0 0 1 0 0) " stroke-linecap="round" />
	<path d="M 43.046 23.239 c -0.156 0 -0.314 -0.036 -0.461 -0.113 c -1.163 -0.607 -2.248 -0.608 -3.411 0 c -0.489 0.255 -1.094 0.066 -1.349 -0.424 c -0.255 -0.49 -0.065 -1.094 0.424 -1.349 c 1.746 -0.911 3.516 -0.91 5.26 0 c 0.49 0.255 0.68 0.859 0.424 1.349 C 43.755 23.043 43.407 23.239 43.046 23.239 z" style="stroke: none; stroke-width: 1; stroke-dasharray: none; stroke-linecap: butt; stroke-linejoin: miter; stroke-miterlimit: 10; fill: rgb(45,68,86); fill-rule: nonzero; opacity: 1;" transform=" matrix(1 0 0 1 0 0) " stroke-linecap="round" />
	<path d="M 51.287 23.239 c -0.155 0 -0.313 -0.036 -0.462 -0.113 c -1.146 -0.599 -2.264 -0.599 -3.41 0 c -0.494 0.257 -1.095 0.064 -1.35 -0.424 c -0.255 -0.49 -0.065 -1.094 0.424 -1.349 c 1.746 -0.91 3.516 -0.91 5.262 0 c 0.489 0.255 0.679 0.859 0.424 1.349 C 51.996 23.043 51.647 23.239 51.287 23.239 z" style="stroke: none; stroke-width: 1; stroke-dasharray: none; stroke-linecap: butt; stroke-linejoin: miter; stroke-miterlimit: 10; fill: rgb(45,68,86); fill-rule: nonzero; opacity: 1;" transform=" matrix(1 0 0 1 0 0) " stroke-linecap="round" />
	<path d="M 49.973 30.539 c -3.316 4.358 -6.631 4.388 -9.947 0 H 49.973 z" style="stroke: none; stroke-width: 1; stroke-dasharray: none; stroke-linecap: butt; stroke-linejoin: miter; stroke-miterlimit: 10; fill: rgb(255,255,255); fill-rule: nonzero; opacity: 1;" transform=" matrix(1 0 0 1 0 0) " stroke-linecap="round" />
	<path d="M 56.761 20.029 c 5.189 -7.722 2.834 -12.985 -5.52 -16.292 c 0.182 -0.763 1.234 -1.526 2.895 -2.289 c -6.871 -2.581 -15.042 -1.991 -18.779 4.045 c -5.121 1.726 -6.689 7.458 -2.09 14.535 c 0.513 -8.662 6.136 -7.958 12.926 -5.116 c 3.433 1.314 6.413 1.179 9.223 0.741 C 56.95 15.366 56.875 18.098 56.761 20.029 z" style="stroke: none; stroke-width: 1; stroke-dasharray: none; stroke-linecap: butt; stroke-linejoin: miter; stroke-miterlimit: 10; fill: rgb(45,68,86); fill-rule: nonzero; opacity: 1;" transform=" matrix(1 0 0 1 0 0) " stroke-linecap="round" />
	<polyline points="18.76,67.55 18.76,49.53 44.99,57.28 44.99,90 18.76,82.25 18.76,75.27 " style="stroke: none; stroke-width: 1; stroke-dasharray: none; stroke-linecap: butt; stroke-linejoin: miter; stroke-miterlimit: 10; fill: rgb(193,58,43); fill-rule: nonzero; opacity: 1;" transform="  matrix(1 0 0 1 0 0) "/>
	<polyline points="71.24,67.55 71.24,49.53 45.01,57.28 45.01,90 71.24,82.25 71.24,75.27 " style="stroke: none; stroke-width: 1; stroke-dasharray: none; stroke-linecap: butt; stroke-linejoin: miter; stroke-miterlimit: 10; fill: rgb(193,58,43); fill-rule: nonzero; opacity: 1;" transform="  matrix(1 0 0 1 0 0) "/>
	<path d="M 20.148 75.265 H 18.77 c -3.291 -2.57 -3.291 -5.141 0 -7.711 h 1.379 c 2.129 0 3.856 1.726 3.856 3.856 v 0 C 24.004 73.538 22.278 75.265 20.148 75.265 z" style="stroke: none; stroke-width: 1; stroke-dasharray: none; stroke-linecap: butt; stroke-linejoin: miter; stroke-miterlimit: 10; fill: rgb(244,211,190); fill-rule: nonzero; opacity: 1;" transform=" matrix(1 0 0 1 0 0) " stroke-linecap="round" />
	<path d="M 69.852 75.265 h 1.379 c 3.291 -2.57 3.291 -5.141 0 -7.711 h -1.379 c -2.129 0 -3.856 1.726 -3.856 3.856 v 0 C 65.996 73.538 67.722 75.265 69.852 75.265 z" style="stroke: none; stroke-width: 1; stroke-dasharray: none; stroke-linecap: butt; stroke-linejoin: miter; stroke-miterlimit: 10; fill: rgb(244,211,190); fill-rule: nonzero; opacity: 1;" transform=" matrix(1 0 0 1 0 0) " stroke-linecap="round" />
</g>
</g>
</svg>