<?xml version="1.0" standalone="no"?>
<!DOCTYPE svg PUBLIC "-//W3C//DTD SVG 20010904//EN"
 "http://www.w3.org/TR/2001/REC-SVG-20010904/DTD/svg10.dtd">
<svg version="1.0" xmlns="http://www.w3.org/2000/svg"
 width="299.000000pt" height="168.000000pt" viewBox="0 0 299.000000 168.000000"
 preserveAspectRatio="xMidYMid meet">

<g transform="translate(0.000000,168.000000) scale(0.100000,-0.100000)"
fill="#000000" stroke="none">
<path d="M890 1643 c0 -42 32 -157 50 -177 8 -10 7 -15 -5 -20 -21 -8 -16 -66
6 -83 26 -19 19 -75 -11 -90 -17 -8 -26 -9 -31 -1 -4 6 -12 7 -19 3 -9 -6 -11
-4 -5 4 5 9 1 12 -11 10 -11 -2 -26 1 -34 6 -8 5 -17 10 -20 10 -12 0 -48 44
-42 51 4 4 2 4 -4 1 -6 -4 -20 0 -30 8 -25 19 -41 19 -41 0 0 -8 5 -11 10 -8
6 4 8 -2 5 -15 -3 -12 -3 -21 1 -20 11 2 41 -14 41 -23 0 -5 -11 -4 -24 1 -20
7 -24 6 -22 -7 2 -9 13 -17 25 -18 29 -2 47 -20 30 -30 -8 -5 -10 -4 -5 3 5 8
0 11 -16 8 -13 -2 -29 2 -37 8 -9 7 -8 1 3 -16 17 -26 35 -41 20 -17 -4 8 0 7
15 -1 18 -9 21 -30 5 -30 -3 0 -2 5 1 10 10 17 -7 11 -22 -7 -8 -10 -12 -13
-9 -6 4 7 -1 9 -16 5 -12 -3 -17 -7 -10 -10 21 -7 13 -20 -10 -14 -21 5 -21 5
-2 -14 12 -13 22 -16 26 -10 5 7 8 7 8 -2 0 -7 -7 -15 -15 -18 -9 -4 -15 -19
-15 -40 0 -19 -5 -34 -11 -34 -5 0 -9 10 -7 23 2 16 -2 22 -14 21 -10 -1 -15
2 -12 7 3 5 -1 9 -9 9 -10 0 -13 -8 -9 -25 2 -14 9 -25 14 -25 5 0 6 5 3 10
-3 6 -1 10 4 10 15 0 14 -30 -1 -31 -7 -1 -2 -5 12 -9 25 -8 25 -8 2 -9 -13
-1 -20 -5 -17 -11 3 -5 -1 -10 -9 -10 -9 0 -16 -5 -16 -11 0 -5 5 -7 11 -3 6
3 15 0 20 -7 6 -10 9 -11 9 -1 0 6 7 12 15 12 18 0 20 -19 3 -24 -51 -15 -79
-25 -60 -22 19 4 22 0 22 -25 0 -16 -5 -29 -11 -29 -5 0 -7 -4 -4 -10 3 -5 0
-10 -8 -10 -10 0 -13 -8 -9 -25 3 -19 10 -25 31 -24 14 0 20 3 14 6 -7 2 -13
12 -13 21 0 14 2 14 9 3 7 -11 9 -11 14 0 3 8 6 -3 6 -23 1 -28 -3 -38 -14
-38 -8 0 -15 5 -15 10 0 6 -4 10 -8 10 -5 0 -7 -14 -4 -31 3 -20 9 -29 18 -25
8 3 14 2 14 -3 0 -5 -13 -11 -30 -15 -20 -4 -30 -11 -30 -24 0 -19 51 -75 67
-73 4 1 8 -5 8 -11 0 -7 4 -16 9 -19 4 -4 3 -10 -3 -13 -6 -4 -11 -2 -11 4 0
7 -7 10 -15 6 -8 -3 -20 1 -27 8 -15 16 -51 8 -44 -10 3 -7 0 -15 -7 -18 -7
-3 0 -3 14 0 16 3 30 1 34 -7 5 -8 4 -10 -4 -5 -6 4 -18 2 -26 -4 -11 -9 -25
-9 -62 4 -62 21 -96 20 -118 -4 -14 -15 -15 -20 -4 -21 8 0 1 -5 -14 -11 -20
-7 -26 -15 -22 -28 3 -9 -1 -23 -10 -30 -11 -9 -15 -9 -15 -1 0 7 -4 9 -10 6
-14 -9 -12 9 3 24 10 10 9 11 -5 6 -11 -4 -18 -2 -18 4 0 6 5 11 10 11 6 0 10
43 10 109 l0 109 63 6 c127 11 197 12 201 1 2 -5 5 -4 5 3 1 7 -6 20 -14 28
-17 18 -20 44 -5 44 7 0 7 6 0 19 -5 11 -10 43 -10 72 l0 52 -31 -7 c-17 -3
-146 -6 -285 -6 l-254 0 0 -371 0 -371 27 6 c88 16 124 17 138 3 12 -13 2 -15
-76 -22 -67 -5 -89 -10 -89 -21 0 -10 12 -14 40 -14 22 0 40 5 40 10 0 15 132
12 197 -5 50 -14 83 -14 250 -4 106 7 190 15 188 18 -3 7 27 8 184 10 57 1
112 -1 122 -4 28 -9 23 10 -5 23 -14 6 -42 27 -64 46 -21 20 -42 32 -46 29 -4
-4 -4 0 -1 9 5 13 14 16 36 11 31 -6 80 3 78 15 -4 22 2 62 9 62 4 0 18 -17
30 -38 20 -36 23 -37 79 -37 32 0 109 -1 171 -3 l113 -2 10 -30 c11 -29 40
-47 59 -35 5 3 10 2 10 -4 0 -5 -12 -12 -27 -14 -16 -2 24 -5 87 -5 63 0 123
-3 132 -7 9 -4 26 -1 39 5 19 11 21 10 16 -4 -7 -17 31 -33 55 -23 7 3 2 6
-11 6 -18 1 -21 4 -13 14 12 14 -21 67 -35 54 -4 -5 -1 -12 7 -17 8 -6 10 -10
4 -10 -11 0 -35 24 -49 50 -6 11 -3 10 12 -3 11 -9 22 -14 26 -11 3 3 -6 16
-21 29 -16 13 -27 34 -28 51 -1 17 -7 28 -13 26 -7 -1 -9 2 -6 8 8 13 -32 60
-51 60 -8 0 -17 -13 -21 -30 l-8 -30 -32 31 c-18 16 -33 35 -33 40 0 6 -4 8
-9 5 -5 -4 -17 -3 -26 0 -13 6 -14 9 -3 16 9 7 2 8 -19 4 -26 -4 -35 -1 -43
14 -6 11 -23 23 -38 26 -15 4 -38 13 -50 21 -13 8 -26 12 -29 9 -3 -3 -17 4
-31 14 -19 16 -40 20 -99 20 -54 0 -72 -3 -67 -12 4 -7 3 -8 -5 -4 -6 4 -42
12 -78 17 -37 5 -72 14 -79 19 -6 6 -28 11 -48 12 -20 1 -36 5 -36 10 0 5 5 6
10 3 6 -3 10 -1 10 4 0 6 -7 11 -15 11 -8 0 -15 7 -15 15 0 9 6 12 18 8 15 -6
15 -4 -2 15 -21 24 -31 29 -21 10 4 -7 -2 -4 -12 8 -10 12 -29 27 -42 33 -20
11 -26 10 -49 -11 l-25 -23 16 25 c9 13 17 37 17 51 0 23 4 26 21 22 14 -4 19
-12 16 -24 -3 -11 -1 -19 4 -19 5 0 10 46 11 103 1 92 2 96 8 42 5 -45 7 -51
9 -25 3 33 4 33 11 10 7 -23 8 -23 10 10 l2 35 8 -30 8 -30 1 32 c0 17 -5 38
-12 45 -8 7 -16 27 -20 45 -6 30 -5 31 21 24 27 -8 31 -20 18 -52 -4 -9 -1
-23 6 -30 13 -14 20 -53 22 -124 1 -34 5 -41 26 -45 18 -4 26 -14 31 -38 4
-19 2 -35 -4 -39 -6 -4 -7 -1 -2 7 5 8 4 11 -3 6 -15 -9 -5 -33 13 -33 8 0 12
4 9 8 -2 4 0 10 4 13 5 3 9 -6 8 -21 -1 -20 4 -27 21 -28 12 -1 20 2 17 6 -2
4 4 16 14 26 11 10 22 25 25 33 3 8 6 -3 6 -24 1 -37 2 -39 16 -20 8 10 15 29
15 42 0 13 4 20 10 17 6 -3 10 4 11 17 0 22 1 22 8 3 l8 -20 5 20 c5 17 6 16
7 -5 l2 -25 10 25 c8 20 12 22 19 10 8 -12 10 -10 11 10 1 25 1 25 7 2 4 -13
11 -23 16 -22 5 1 13 -4 18 -12 6 -9 7 -3 3 17 -4 16 -10 32 -14 35 -5 3 -11
16 -15 30 -6 19 -5 21 3 10 9 -13 11 -13 11 3 0 25 15 21 17 -5 4 -47 16 -88
25 -88 6 0 8 11 4 23 -3 15 -1 24 7 24 6 0 29 3 50 7 24 4 37 4 33 -2 -3 -5
-19 -12 -36 -15 l-30 -7 0 -75 c0 -53 -4 -75 -12 -76 -7 -1 16 -7 50 -15 57
-12 65 -12 79 2 17 17 16 19 -31 45 -15 9 -16 13 -5 20 26 16 41 11 33 -13
l-7 -23 23 20 23 20 -12 -22 c-6 -13 -8 -23 -3 -23 6 0 12 9 15 21 4 15 0 23
-11 26 -9 2 -25 21 -34 42 -22 46 -22 55 -4 48 10 -4 13 -1 10 7 -3 8 4 16 15
19 12 3 19 1 15 -4 -3 -5 0 -9 5 -9 6 0 11 5 11 11 0 5 4 7 10 4 6 -4 9 4 7
17 -1 13 3 22 8 21 6 -1 12 7 12 18 2 17 -1 18 -12 9 -8 -7 -17 -20 -20 -31
-4 -11 -10 -17 -15 -14 -5 3 2 19 17 35 14 16 30 27 36 23 6 -4 8 0 5 9 -5 11
0 14 20 11 23 -4 24 -3 10 7 -10 6 -18 16 -18 23 0 8 3 8 9 -1 6 -10 13 -3 25
23 10 20 15 39 13 42 -3 3 -33 -21 -67 -54 -71 -67 -110 -92 -110 -69 0 7 -7
16 -15 20 -8 3 -15 13 -15 23 0 15 -2 15 -9 4 -7 -11 -11 -5 -16 23 -7 33 -9
35 -21 19 -13 -17 -14 -17 -8 2 5 16 4 17 -5 5 -6 -8 -11 -23 -11 -33 0 -11
-4 -15 -12 -11 -8 5 -9 2 -4 -12 4 -10 4 -15 0 -11 -4 4 -13 -1 -21 -11 -13
-15 -14 -12 -8 23 4 22 11 41 16 43 4 2 11 19 15 39 4 21 10 30 14 23 4 -7 10
1 13 20 4 17 20 42 37 56 32 28 40 54 15 54 -12 0 -10 9 10 40 14 22 21 40 15
40 -5 0 -10 -3 -10 -8 0 -4 -9 -13 -19 -19 -17 -10 -18 -9 -13 9 3 14 1 19 -6
14 -6 -3 -13 -2 -17 4 -3 5 -1 10 4 10 17 0 13 18 -19 86 -30 62 -30 64 -13
91 10 16 21 31 25 34 5 3 10 25 13 48 3 38 2 41 -12 29 -15 -12 -15 -11 -4 11
8 15 9 21 2 17 -6 -4 -11 0 -11 8 0 9 -4 16 -8 16 -15 0 -13 60 3 66 12 5 13
9 4 20 -9 11 -52 14 -205 14 l-194 0 0 -37z m-153 -308 c0 -8 -4 -12 -9 -9 -5
3 -6 10 -3 15 9 13 12 11 12 -6z m63 -108 c0 -2 -10 -12 -22 -23 l-23 -19 19
23 c18 21 26 27 26 19z m-63 -59 c-3 -8 -6 -5 -6 6 -1 11 2 17 5 13 3 -3 4
-12 1 -19z m320 -25 c-3 -10 -5 -2 -5 17 0 19 2 27 5 18 2 -10 2 -26 0 -35z
m-97 7 c-13 -9 -13 -10 0 -10 13 0 13 -1 0 -10 -11 -7 -12 -10 -2 -10 27 0 44
-30 40 -69 -2 -22 -1 -38 2 -36 3 2 11 -3 18 -11 7 -8 9 -14 4 -14 -5 0 -6
-15 -3 -32 4 -32 5 -32 12 -8 6 22 7 22 8 4 1 -11 -7 -28 -17 -38 -18 -15 -19
-15 -17 13 1 17 -2 28 -6 25 -4 -2 -10 0 -14 6 -3 5 -2 10 4 10 6 0 8 7 5 15
-4 8 -10 12 -15 9 -5 -3 -9 0 -9 5 0 6 -3 10 -7 10 -24 -4 -28 7 -28 76 0 68
2 75 20 75 17 0 17 -2 5 -10z m-239 -23 c-10 -9 -11 -8 -5 6 3 10 9 15 12 12
3 -3 0 -11 -7 -18z m407 -12 c-3 -3 -9 2 -12 12 -6 14 -5 15 5 6 7 -7 10 -15
7 -18z m-271 -4 c0 -9 3 -26 6 -38 4 -17 2 -20 -9 -16 -9 3 -14 13 -11 23 2 9
1 24 -4 32 -5 9 -4 15 4 15 7 0 13 -7 14 -16z m-29 -32 c-3 -8 -7 -3 -11 10
-4 17 -3 21 5 13 5 -5 8 -16 6 -23z m309 -11 c-3 -7 -5 -2 -5 12 0 14 2 19 5
13 2 -7 2 -19 0 -25z m-435 -3 c-2 -14 -8 -25 -12 -25 -4 0 -5 11 -2 25 2 14
8 25 12 25 4 0 5 -11 2 -25z m588 6 c0 -4 -11 -14 -25 -21 -14 -7 -25 -18 -25
-23 0 -5 -7 -15 -15 -21 -8 -6 -18 -31 -21 -56 -3 -25 -10 -52 -16 -60 -7 -12
-8 -11 -4 5 2 11 7 42 11 68 l6 48 -20 -20 c-12 -12 -21 -29 -21 -38 -1 -17
-2 -16 -11 1 -9 14 -7 24 9 45 11 14 27 25 36 25 8 -1 14 3 13 10 -1 6 4 10
11 8 18 -3 63 33 54 43 -4 5 -1 5 6 1 6 -4 12 -11 12 -15z m-523 -13 c-3 -8
-6 -5 -6 6 -1 11 2 17 5 13 3 -3 4 -12 1 -19z m-48 -40 c-1 -18 -3 -25 -6 -15
-2 9 -9 17 -14 17 -5 0 -4 7 3 15 18 20 18 19 17 -17z m68 10 c-3 -8 -6 -5 -6
6 -1 11 2 17 5 13 3 -3 4 -12 1 -19z m-50 -10 c-3 -8 -6 -5 -6 6 -1 11 2 17 5
13 3 -3 4 -12 1 -19z m20 -35 c-3 -10 -5 -4 -5 12 0 17 2 24 5 18 2 -7 2 -21
0 -30z m500 15 c-3 -8 -6 -5 -6 6 -1 11 2 17 5 13 3 -3 4 -12 1 -19z m-560
-35 c-3 -10 -5 -2 -5 17 0 19 2 27 5 18 2 -10 2 -26 0 -35z m94 -3 c5 0 8 -26
7 -57 -1 -55 -2 -56 -6 -13 -3 35 -6 41 -12 25 -6 -14 -8 -5 -8 30 0 28 2 42
5 33 2 -10 9 -18 14 -18z m740 -3 c-10 -9 -11 -8 -5 6 3 10 9 15 12 12 3 -3 0
-11 -7 -18z m-871 -12 c2 20 4 24 7 12 7 -27 -5 -67 -20 -67 -9 0 -11 13 -8
43 5 40 5 41 12 12 l7 -30 2 30z m478 0 c-3 -3 -9 2 -12 12 -6 14 -5 15 5 6 7
-7 10 -15 7 -18z m-401 -17 c-3 -7 -5 -2 -5 12 0 14 2 19 5 13 2 -7 2 -19 0
-25z m20 0 c-3 -7 -5 -2 -5 12 0 14 2 19 5 13 2 -7 2 -19 0 -25z m-53 -30 c6
-5 3 -8 -10 -8 -18 0 -20 4 -16 28 5 22 7 24 10 7 2 -11 9 -23 16 -27z m23
-40 c-2 -13 -4 -5 -4 17 -1 22 1 32 4 23 2 -10 2 -28 0 -40z m-24 -25 c-3 -27
-10 -57 -16 -67 -10 -19 -10 -19 -24 0 -8 10 -19 18 -24 17 -5 -2 -9 2 -9 7 0
19 29 10 35 -11 10 -29 18 -16 25 41 5 40 3 50 -9 53 -10 3 -8 5 6 6 21 1 22
-2 16 -46z m44 15 c-3 -8 -6 -5 -6 6 -1 11 2 17 5 13 3 -3 4 -12 1 -19z m33 7
c0 -8 -4 -15 -10 -15 -5 0 -7 7 -4 15 4 8 8 15 10 15 2 0 4 -7 4 -15z m240 5
c0 -4 -7 -7 -15 -6 -23 3 -26 12 -5 13 11 1 20 -2 20 -7z m57 -12 c-3 -8 -6
-5 -6 6 -1 11 2 17 5 13 3 -3 4 -12 1 -19z m-400 -10 c-3 -8 -6 -5 -6 6 -1 11
2 17 5 13 3 -3 4 -12 1 -19z m337 -6 c3 -5 -1 -9 -9 -9 -8 0 -12 4 -9 9 3 4 7
8 9 8 2 0 6 -4 9 -8z m146 -2 c0 -5 -7 -10 -15 -10 -8 0 -15 5 -15 10 0 6 7
10 15 10 8 0 15 -4 15 -10z m-413 -22 c-3 -8 -6 -5 -6 6 -1 11 2 17 5 13 3 -3
4 -12 1 -19z m330 -40 c-3 -7 -5 -2 -5 12 0 14 2 19 5 13 2 -7 2 -19 0 -25z
m-337 1 c-7 -11 -14 -18 -17 -15 -3 3 0 12 7 21 18 21 23 19 10 -6z m-70 -44
c5 -14 15 -25 22 -25 9 0 8 -3 -2 -10 -12 -7 -10 -9 8 -7 16 1 21 6 17 17 -5
11 -3 12 5 4 7 -7 24 -9 45 -4 18 4 39 4 46 -1 10 -6 3 -9 -18 -9 -18 0 -34 1
-36 3 -2 1 -12 -6 -22 -16 -9 -10 -24 -16 -31 -13 -8 3 -11 -1 -8 -12 3 -11
-1 -9 -12 6 -9 12 -22 22 -28 22 -7 0 -23 11 -36 26 -21 21 -22 27 -10 34 26
17 50 11 60 -15z m-192 -160 c-2 -5 -6 -9 -10 -7 -14 4 -8 -11 10 -25 15 -13
15 -13 -5 -3 -27 12 -36 27 -28 41 8 13 37 8 33 -6z m171 -60 c28 -17 41 -21
45 -12 7 17 34 -19 46 -63 6 -19 12 -60 15 -90 2 -30 2 -46 -1 -35 -12 47 -27
65 -53 63 -18 -2 -26 3 -30 19 -7 28 -27 18 -34 -17 -3 -14 -5 -6 -4 18 2 23
0 42 -4 42 -4 0 -9 7 -13 15 -3 8 0 14 6 12 22 -4 18 21 -8 46 -33 34 -16 35
35 2z m-89 -32 c0 -3 -7 -3 -15 1 -8 3 -15 1 -15 -4 0 -6 -7 -10 -15 -10 -8 0
-15 5 -15 11 0 5 4 8 9 4 5 -3 12 -1 16 4 5 10 35 4 35 -6z m910 7 c8 -5 11
-10 5 -10 -5 0 -17 5 -25 10 -8 5 -10 10 -5 10 6 0 17 -5 25 -10z m-151 -35
c-11 -10 -132 -33 -147 -27 -10 4 9 11 48 18 75 13 105 16 99 9z m204 -29 c4
-10 1 -13 -9 -9 -15 6 -19 23 -5 23 5 0 11 -7 14 -14z m-373 -5 c0 -18 -44
-36 -62 -25 -4 3 -2 11 5 19 14 16 57 20 57 6z m300 -11 c-8 -5 -19 -10 -25
-10 -5 0 -3 5 5 10 8 5 20 10 25 10 6 0 3 -5 -5 -10z m240 -100 c0 -5 -2 -10
-4 -10 -3 0 -8 5 -11 10 -3 6 -1 10 4 10 6 0 11 -4 11 -10z m-20 -20 c13 -9
13 -11 0 -20 -22 -15 -30 -12 -30 10 0 22 8 25 30 10z m-715 -20 c7 -12 -2
-12 -30 0 -19 8 -19 9 2 9 12 1 25 -3 28 -9z"/>
<path d="M967 1063 c-2 -10 -8 -25 -11 -34 -4 -10 -2 -16 7 -16 8 0 13 13 14
34 1 37 -2 42 -10 16z"/>
<path d="M645 718 c5 -20 4 -21 -5 -5 -6 9 -16 17 -22 17 -6 0 -3 -9 7 -20 22
-24 50 -27 41 -4 -3 9 -6 20 -6 25 0 5 -5 9 -11 9 -6 0 -8 -9 -4 -22z"/>
<path d="M690 461 c0 -10 28 -41 36 -41 2 0 -3 11 -12 25 -17 26 -24 31 -24
16z"/>
<path d="M1535 1661 c-6 -20 3 -51 15 -51 5 0 10 10 12 23 2 12 8 20 13 17 15
-7 8 -38 -14 -61 -15 -16 -33 -21 -80 -22 -59 -2 -61 -3 -61 -28 0 -30 24 -57
35 -39 6 9 -1 14 -17 11 -10 -1 -10 13 -1 22 3 4 15 0 25 -9 14 -13 15 -20 7
-31 -9 -10 -9 -12 2 -8 8 3 23 -2 34 -10 19 -15 19 -16 -5 -4 -31 15 -27 10
30 -33 25 -18 55 -33 68 -32 12 1 22 -3 22 -8 0 -6 -8 -7 -17 -4 -10 4 -2 -7
17 -24 19 -17 50 -44 68 -61 l32 -30 0 201 0 200 -89 0 c-79 0 -90 -2 -96 -19z
m40 -150 c-3 -11 -13 -21 -21 -21 -15 0 -19 27 -8 55 10 26 38 -6 29 -34z
m-60 9 c-3 -5 -12 -10 -18 -10 -7 0 -6 4 3 10 19 12 23 12 15 0z"/>
<path d="M1477 1663 c-28 -7 -18 -47 13 -51 20 -3 22 -2 12 11 -10 12 -10 16
3 21 8 3 15 10 15 16 0 10 -12 11 -43 3z"/>
<path d="M1408 1633 c5 -10 12 -25 16 -33 3 -8 4 -2 1 13 -4 19 -2 26 5 22 5
-3 10 -1 10 4 0 6 -9 11 -20 11 -16 0 -19 -4 -12 -17z"/>
<path d="M110 1590 c0 -11 6 -20 14 -20 21 0 31 21 15 31 -22 14 -29 11 -29
-11z"/>
<path d="M170 1585 c0 -8 9 -15 20 -15 11 0 20 7 20 15 0 8 -9 15 -20 15 -11
0 -20 -7 -20 -15z"/>
<path d="M4 1549 c-3 -6 -1 -16 5 -22 8 -8 11 -5 11 11 0 24 -5 28 -16 11z"/>
<path d="M110 1546 c0 -2 7 -7 16 -10 8 -3 12 -2 9 4 -6 10 -25 14 -25 6z"/>
<path d="M170 1531 c0 -5 9 -11 20 -14 13 -3 20 0 20 9 0 8 -9 14 -20 14 -11
0 -20 -4 -20 -9z"/>
<path d="M870 1470 c8 -5 20 -10 25 -10 6 0 3 5 -5 10 -8 5 -19 10 -25 10 -5
0 -3 -5 5 -10z"/>
<path d="M1325 1460 c-3 -11 -10 -20 -15 -20 -5 0 -7 -6 -4 -14 3 -7 -2 -16
-11 -20 -12 -4 -14 -10 -6 -25 14 -25 40 -34 57 -20 11 9 14 8 14 -2 0 -24 20
13 20 37 0 16 -8 23 -31 28 -31 6 -31 6 -15 31 9 14 12 25 7 25 -5 0 -13 -9
-16 -20z"/>
<path d="M875 1423 c-21 -12 -26 -18 -15 -21 8 -3 20 -9 27 -14 7 -5 14 -5 18
2 4 6 1 9 -6 8 -6 -2 -14 3 -17 11 -3 9 0 12 10 9 9 -4 15 0 15 8 0 8 -1 14
-1 14 -1 -1 -14 -8 -31 -17z"/>
<path d="M2092 1418 c-7 -7 -12 -9 -12 -5 0 3 -18 0 -40 -8 -43 -15 -42 -15
-64 -15 -17 0 -146 -118 -146 -134 0 -7 -8 -28 -17 -47 -20 -38 -23 -116 -6
-151 24 -50 43 -110 38 -118 -3 -5 2 -13 12 -19 10 -5 24 -30 32 -55 10 -34
24 -55 55 -78 22 -17 45 -35 49 -39 9 -7 -49 -69 -64 -69 -5 0 -9 -9 -9 -20 0
-16 -7 -20 -34 -20 -19 0 -37 -4 -40 -9 -6 -9 -73 -25 -106 -26 -8 0 -21 -4
-28 -8 -7 -5 -34 -10 -60 -12 -25 -2 -48 -8 -50 -14 -3 -9 -8 -8 -20 1 -13 11
-14 11 -7 -1 6 -11 3 -13 -13 -9 -12 4 -22 2 -22 -3 0 -7 24 -15 103 -35 15
-3 27 -10 27 -14 0 -19 33 -40 54 -34 35 10 110 47 124 61 7 7 25 16 39 19 32
8 45 -10 38 -54 -4 -19 -1 -39 5 -47 6 -7 11 -28 12 -47 l1 -35 44 9 c42 9
115 7 178 -6 23 -5 25 -4 10 3 -14 6 5 9 62 8 55 -1 84 -5 87 -14 4 -9 -12
-11 -62 -7 -36 3 -63 2 -59 -2 4 -4 24 -7 44 -6 20 1 40 -2 43 -7 10 -15 138
-21 152 -7 8 7 20 16 28 19 8 4 -4 5 -27 2 -26 -3 -43 -1 -43 5 0 5 18 10 40
10 22 0 40 4 40 10 0 19 -23 59 -38 65 -22 8 -28 -3 -14 -26 17 -27 7 -39 -32
-39 -51 0 -100 12 -85 20 6 4 -9 5 -35 3 -31 -4 -46 -2 -46 6 0 6 11 11 25 11
14 0 28 7 31 15 4 8 12 15 20 15 8 0 14 4 14 10 0 5 19 19 41 31 39 19 41 20
35 2 -7 -17 -6 -17 10 -1 9 9 14 23 11 32 -5 13 -13 12 -59 -9 -29 -14 -62
-25 -74 -25 -11 0 -24 -3 -28 -7 -3 -4 -14 -8 -24 -9 -15 -2 -14 -1 2 12 11 8
26 14 33 14 7 0 37 11 68 25 30 13 58 24 62 24 3 -1 11 7 16 17 9 16 13 13 27
-21 l17 -40 -1 42 c0 23 -3 40 -6 38 -3 -2 -6 7 -6 20 -1 16 11 32 42 56 38
28 58 59 38 59 -14 0 -104 -97 -104 -112 0 -10 -4 -18 -10 -18 -5 0 -10 5 -10
10 0 6 -10 10 -22 11 -21 0 -21 1 -4 8 18 7 18 8 3 14 -26 10 -21 22 17 42 19
11 33 22 31 25 -2 4 10 20 27 36 25 24 30 25 25 9 -7 -20 -7 -20 8 -1 10 13
15 15 15 6 0 -10 5 -9 19 4 15 14 20 14 29 3 7 -8 9 -17 5 -20 -12 -12 13 -7
31 6 17 12 16 14 -10 32 -45 29 -65 55 -55 74 9 18 3 44 -9 36 -4 -3 -11 7
-14 20 -4 14 -11 23 -16 20 -6 -3 -7 1 -4 9 4 9 0 18 -9 22 -9 3 -19 20 -23
37 -3 18 -15 43 -25 56 -17 21 -19 22 -20 5 0 -18 -1 -18 -9 1 -7 17 -9 17 -9
3 -1 -29 -28 -20 -39 12 -12 32 3 54 19 29 5 -8 9 -9 9 -3 0 20 -25 35 -37 23
-6 -6 -17 -8 -23 -4 -9 6 -7 11 8 19 18 10 19 13 7 30 -8 10 -21 16 -29 13 -9
-4 -16 3 -21 21 -4 16 -2 28 4 30 21 7 11 42 -14 54 -18 8 -22 14 -15 23 8 9
4 14 -12 19 -22 5 -48 45 -48 72 0 23 -78 32 -98 12z m108 -157 c0 -22 -16
-36 -24 -22 -8 12 3 41 15 41 5 0 9 -9 9 -19z m77 -123 c-3 -8 -6 -5 -6 6 -1
11 2 17 5 13 3 -3 4 -12 1 -19z m-67 -63 c21 -38 34 -41 50 -10 18 34 39 32
38 -4 -1 -42 12 -59 28 -36 19 25 23 16 11 -25 -8 -31 -10 -33 -18 -15 -10 25
-12 9 -9 -67 1 -38 -5 -70 -18 -100 -18 -41 -52 -81 -52 -61 0 5 -25 15 -55
22 -30 7 -53 17 -50 22 4 5 -3 9 -14 9 -12 0 -21 5 -21 10 0 6 14 10 30 10 30
0 31 1 26 38 -4 26 -3 30 2 12 11 -36 21 -11 10 27 -6 25 -16 35 -41 42 -17 5
-24 10 -14 10 31 2 18 20 -24 31 -22 6 -39 14 -37 18 2 4 10 19 18 35 7 15 18
26 24 24 6 -2 27 7 46 20 41 27 49 26 70 -12z m-123 -131 c-3 -3 -12 -4 -19
-1 -8 3 -5 6 6 6 11 1 17 -2 13 -5z m-194 -16 c4 -10 8 -9 16 2 6 8 11 10 11
4 0 -7 7 -14 14 -17 11 -4 13 -1 9 10 -5 13 -3 13 20 -2 15 -10 24 -22 20 -31
-6 -16 -19 -18 -28 -5 -3 5 -18 12 -34 16 -29 6 -64 35 -43 35 6 0 13 -6 15
-12z m207 -284 c0 -2 -7 -4 -15 -4 -8 0 -15 4 -15 10 0 5 7 7 15 4 8 -4 15 -8
15 -10z m232 -1 c-6 -2 -10 -8 -8 -12 3 -4 -5 -8 -16 -8 -20 -2 -20 -1 -2 12
11 8 24 14 29 14 6 0 4 -3 -3 -6z m-312 -7 c0 -3 -4 -8 -10 -11 -5 -3 -10 -1
-10 4 0 6 5 11 10 11 6 0 10 -2 10 -4z m277 -51 c0 -17 -13 -20 -21 -6 -4 5 0
12 6 14 7 3 13 6 14 6 0 1 1 -6 1 -14z m-335 -17 c-7 -7 -12 -8 -12 -2 0 14
12 26 19 19 2 -3 -1 -11 -7 -17z m86 -13 c-3 -3 -9 2 -12 12 -6 14 -5 15 5 6
7 -7 10 -15 7 -18z m110 -139 c-10 -7 -15 -16 -11 -19 3 -4 1 -7 -5 -7 -18 0
-14 18 6 29 24 15 30 13 10 -3z m57 3 c4 -6 5 -12 2 -15 -7 -7 -37 7 -37 17 0
13 27 11 35 -2z m58 -26 c-7 -2 -19 -2 -25 0 -7 3 -2 5 12 5 14 0 19 -2 13 -5z"/>
<path d="M885 1336 c28 -25 35 -36 23 -36 -10 0 -22 9 -28 19 -11 21 -67 38
-80 25 -5 -5 2 -14 16 -21 22 -10 24 -10 14 3 -20 23 5 16 36 -11 33 -28 69
-33 78 -9 4 10 2 13 -6 8 -7 -5 -9 0 -6 14 7 24 -22 57 -29 35 -3 -9 -12 -9
-31 -2 -23 9 -22 6 13 -25z m45 10 c0 -2 -7 -7 -16 -10 -8 -3 -12 -2 -9 4 6
10 25 14 25 6z"/>
<path d="M1485 1341 c-6 -11 13 -26 22 -17 4 3 1 6 -6 6 -7 0 -9 5 -6 10 3 6
4 10 1 10 -3 0 -7 -4 -11 -9z"/>
<path d="M2285 1320 c3 -5 8 -10 11 -10 2 0 4 5 4 10 0 6 -5 10 -11 10 -5 0
-7 -4 -4 -10z"/>
<path d="M1480 1286 c0 -3 14 -12 30 -21 17 -9 30 -13 30 -11 0 3 -13 12 -30
21 -16 9 -30 13 -30 11z"/>
<path d="M330 1229 c0 -73 11 -130 23 -126 5 1 15 23 22 48 12 48 9 58 -27
108 -18 24 -18 24 -18 -30z"/>
<path d="M1477 1239 c7 -7 15 -10 18 -7 3 3 -2 9 -12 12 -14 6 -15 5 -6 -5z"/>
<path d="M1549 1172 c5 -34 6 -35 9 -8 2 16 0 32 -5 37 -5 5 -7 -7 -4 -29z"/>
<path d="M1471 1184 c0 -11 3 -14 6 -6 3 7 2 16 -1 19 -3 4 -6 -2 -5 -13z"/>
<path d="M666 1144 c-4 -9 -4 -19 -1 -22 2 -3 7 3 11 12 4 9 4 19 1 22 -2 3
-7 -3 -11 -12z"/>
<path d="M1418 1133 c5 -23 7 -25 10 -8 2 11 9 23 16 27 6 5 3 8 -10 8 -18 0
-20 -4 -16 -27z"/>
<path d="M1503 1075 c0 -33 2 -45 4 -27 2 18 2 45 0 60 -2 15 -4 0 -4 -33z"/>
<path d="M1371 1068 c-1 -30 3 -38 17 -38 11 0 13 3 5 8 -6 4 -13 21 -16 37
-4 27 -4 27 -6 -7z"/>
<path d="M1391 1064 c0 -11 3 -14 6 -6 3 7 2 16 -1 19 -3 4 -6 -2 -5 -13z"/>
<path d="M1418 1073 c7 -3 16 -2 19 1 4 3 -2 6 -13 5 -11 0 -14 -3 -6 -6z"/>
<path d="M1423 1033 c9 -2 25 -2 35 0 9 3 1 5 -18 5 -19 0 -27 -2 -17 -5z"/>
<path d="M1692 955 c-13 -44 -37 -108 -53 -143 -31 -67 -36 -87 -18 -76 7 4 2
-7 -11 -24 -18 -24 -20 -34 -11 -48 10 -18 11 -18 17 4 5 19 12 22 48 20 l41
-3 8 160 c4 88 6 167 4 175 -1 8 -13 -22 -25 -65z"/>
<path d="M1398 993 c6 -2 18 -2 25 0 6 3 1 5 -13 5 -14 0 -19 -2 -12 -5z"/>
<path d="M1398 973 c6 -2 18 -2 25 0 6 3 1 5 -13 5 -14 0 -19 -2 -12 -5z"/>
<path d="M2604 948 c9 -14 13 -28 9 -32 -5 -4 -2 -6 6 -4 7 2 16 -3 18 -10 4
-9 -1 -10 -21 -2 -25 9 -26 8 -16 -10 6 -11 15 -18 21 -15 5 4 8 3 7 -2 -5
-14 30 -55 41 -49 7 5 8 1 4 -10 -5 -13 -3 -16 10 -11 10 4 21 -3 32 -19 16
-25 16 -25 -4 -14 -13 6 -21 7 -21 1 0 -11 16 -17 73 -27 27 -4 37 -11 35 -23
-2 -9 3 -15 9 -14 7 2 12 -1 10 -5 -1 -4 23 -37 55 -72 31 -36 70 -81 87 -100
l30 -35 1 226 0 226 -167 7 c-93 4 -183 9 -202 13 l-33 6 16 -25z"/>
<path d="M1398 951 c8 -4 12 -14 10 -22 -1 -8 2 -15 7 -16 6 -2 10 5 10 15 0
9 6 20 15 24 9 4 1 7 -20 7 -23 0 -30 -2 -22 -8z"/>
<path d="M600 935 c0 -8 4 -15 10 -15 5 0 7 7 4 15 -4 8 -8 15 -10 15 -2 0 -4
-7 -4 -15z"/>
<path d="M2576 942 c-3 -5 1 -9 9 -9 8 0 12 4 9 9 -3 4 -7 8 -9 8 -2 0 -6 -4
-9 -8z"/>
<path d="M843 825 c0 -22 2 -30 4 -17 2 12 2 30 0 40 -3 9 -5 -1 -4 -23z"/>
<path d="M1500 840 c-6 -11 -8 -20 -6 -20 3 0 10 9 16 20 6 11 8 20 6 20 -3 0
-10 -9 -16 -20z"/>
<path d="M821 804 c0 -11 3 -14 6 -6 3 7 2 16 -1 19 -3 4 -6 -2 -5 -13z"/>
<path d="M1421 753 c-8 -15 -5 -18 19 -18 27 0 27 1 13 18 -9 9 -17 17 -19 17
-2 0 -8 -8 -13 -17z"/>
<path d="M2450 719 c0 -5 5 -7 10 -4 6 3 10 8 10 11 0 2 -4 4 -10 4 -5 0 -10
-5 -10 -11z"/>
<path d="M1436 712 c-3 -5 1 -9 9 -9 8 0 15 4 15 9 0 4 -4 8 -9 8 -6 0 -12 -4
-15 -8z"/>
<path d="M576 677 c9 -16 18 -26 21 -23 3 3 0 14 -7 23 -7 10 1 3 19 -15 17
-18 31 -28 31 -23 0 16 -48 68 -64 68 -13 0 -13 -4 0 -30z"/>
<path d="M1493 692 c1 -14 5 -18 11 -12 7 7 6 14 -1 21 -9 9 -12 7 -10 -9z"/>
<path d="M2492 655 c-23 -19 -38 -37 -32 -40 5 -3 10 -2 10 4 0 6 16 17 35 26
40 19 66 45 44 44 -8 0 -33 -16 -57 -34z"/>
<path d="M1570 650 c-14 -26 -13 -30 8 -30 31 0 39 14 20 32 -17 17 -18 17
-28 -2z"/>
<path d="M1434 622 c4 -7 1 -12 -9 -12 -9 0 -13 -4 -10 -10 3 -5 10 -10 15
-10 13 0 20 29 8 36 -7 4 -8 3 -4 -4z"/>
<path d="M2573 543 c-7 -2 -13 -18 -13 -35 l0 -30 25 23 c37 36 30 60 -12 42z"/>
<path d="M1570 480 c8 -5 20 -10 25 -10 6 0 3 5 -5 10 -8 5 -19 10 -25 10 -5
0 -3 -5 5 -10z"/>
<path d="M1660 479 c0 -5 9 -18 20 -29 11 -11 20 -23 20 -28 0 -4 15 -28 33
-54 18 -25 41 -64 52 -87 14 -31 24 -41 42 -41 12 0 23 -4 23 -10 0 -5 7 -10
15 -10 9 0 12 6 9 15 -4 8 -2 15 4 15 5 0 15 -20 22 -44 12 -44 13 -45 64 -50
28 -3 115 -8 194 -11 78 -3 161 -9 185 -14 23 -6 56 -13 72 -17 l30 -7 -25 -7
c-20 -6 -16 -8 22 -9 26 -1 58 -5 71 -10 26 -10 239 -35 390 -46 l87 -7 0 77
0 77 -37 -6 c-42 -6 -201 -18 -275 -20 -25 0 -44 -4 -42 -7 8 -13 -39 -17 -51
-5 -9 8 -27 11 -57 7 -42 -6 -103 1 -164 20 -17 5 -43 9 -58 9 -19 0 -29 6
-33 19 -4 14 -13 19 -36 19 -18 -1 -42 3 -54 7 -14 4 -23 3 -23 -3 0 -5 10
-12 22 -16 17 -4 20 -8 11 -17 -14 -14 -151 -8 -161 7 -4 6 -15 13 -24 17 -13
4 -16 2 -12 -11 4 -12 3 -13 -3 -4 -6 7 -18 10 -29 6 -14 -5 -12 -1 6 12 14
10 28 18 31 17 4 -1 5 6 2 17 -5 19 -7 19 -35 -5 -32 -27 -53 -32 -60 -12 -7
18 2 37 18 37 8 0 14 3 14 8 0 4 14 15 30 24 17 10 30 25 29 35 0 11 -3 13 -6
6 -2 -7 -9 -13 -14 -13 -6 0 -27 -11 -47 -25 -42 -29 -52 -31 -52 -11 0 8 -6
17 -12 19 -10 4 -10 6 0 6 6 1 12 9 12 19 0 14 -2 15 -10 2 -8 -12 -10 -11
-10 8 0 12 5 22 12 22 6 0 8 3 4 7 -4 4 -28 8 -54 9 -26 1 -57 2 -69 3 -14 1
-23 7 -23 17 0 8 -16 30 -35 48 -19 19 -35 29 -35 25z m1025 -349 c-3 -5 -21
-10 -38 -10 -24 0 -28 3 -17 10 20 13 63 13 55 0z m120 0 c-3 -5 -25 -9 -48
-8 l-42 1 45 7 c25 4 46 8 48 8 2 1 0 -2 -3 -8z"/>
<path d="M2638 473 c7 -3 16 -2 19 1 4 3 -2 6 -13 5 -11 0 -14 -3 -6 -6z"/>
<path d="M2480 452 c0 -5 7 -13 16 -16 10 -4 14 -1 12 6 -5 15 -28 23 -28 10z"/>
<path d="M2672 449 c2 -7 10 -15 17 -17 8 -3 12 1 9 9 -2 7 -10 15 -17 17 -8
3 -12 -1 -9 -9z"/>
<path d="M2720 436 c0 -8 -5 -16 -12 -18 -8 -3 -8 -9 0 -24 6 -10 12 -13 12
-6 0 6 5 12 11 12 7 0 9 -9 6 -21 -8 -31 20 -69 52 -69 74 0 133 24 79 32 -13
2 -23 10 -23 18 0 8 -10 17 -23 20 -13 3 -23 9 -22 13 1 10 -19 28 -48 45 -28
15 -32 15 -32 -2z"/>
<path d="M2400 410 c0 -5 5 -10 11 -10 5 0 7 5 4 10 -3 6 -8 10 -11 10 -2 0
-4 -4 -4 -10z"/>
<path d="M1709 363 c12 -24 31 -39 31 -25 0 5 -10 17 -21 28 -22 19 -22 19
-10 -3z"/>
<path d="M2968 323 c7 -3 16 -2 19 1 4 3 -2 6 -13 5 -11 0 -14 -3 -6 -6z"/>
<path d="M1126 176 c17 -7 41 -17 55 -20 21 -7 21 -5 -6 13 -16 12 -41 21 -55
21 -24 -1 -24 -1 6 -14z"/>
<path d="M1226 151 c-9 -13 -1 -17 113 -56 56 -19 108 -32 117 -28 11 4 15 2
11 -4 -7 -11 156 -67 176 -60 12 4 -89 37 -114 37 -7 0 -9 3 -6 7 6 6 -186 84
-201 82 -21 -3 -42 2 -38 9 3 5 0 9 -7 9 -7 0 -19 4 -28 7 -10 4 -20 3 -23 -3z"/>
<path d="M1065 16 c-28 -13 -24 -14 58 -12 48 0 88 5 90 11 3 16 -114 16 -148
1z"/>
<path d="M1978 13 c7 -3 16 -2 19 1 4 3 -2 6 -13 5 -11 0 -14 -3 -6 -6z"/>
</g>
</svg>
