<?xml version="1.0" standalone="no"?>
<!DOCTYPE svg PUBLIC "-//W3C//DTD SVG 20010904//EN"
 "http://www.w3.org/TR/2001/REC-SVG-20010904/DTD/svg10.dtd">
<svg version="1.0" xmlns="http://www.w3.org/2000/svg"
 width="478.000000pt" height="310.000000pt" viewBox="0 0 478.000000 310.000000"
 preserveAspectRatio="xMidYMid meet">

<g transform="translate(0.000000,310.000000) scale(0.100000,-0.100000)"
fill="#000000" stroke="none">
<path d="M3170 3083 c0 -6 7 -16 15 -23 8 -7 15 -19 15 -26 0 -15 -37 -11
-102 12 -42 14 -49 7 -18 -21 11 -10 20 -22 20 -27 0 -11 -71 1 -84 13 -6 5
-13 9 -16 9 -10 0 8 -140 19 -154 8 -9 1 -22 -25 -47 -39 -37 -73 -97 -97
-174 -20 -62 -70 -296 -64 -301 2 -3 14 44 26 103 42 206 93 334 146 369 23
15 28 15 68 -5 55 -27 118 -27 193 0 116 41 278 5 339 -75 44 -58 46 -120 6
-201 -24 -49 -30 -69 -22 -83 21 -39 23 -118 6 -206 -10 -48 -16 -88 -14 -90
2 -2 27 -6 56 -9 49 -6 52 -5 62 21 6 19 10 21 10 9 1 -10 8 -25 16 -33 21
-21 19 -44 -4 -44 -11 0 -23 -4 -26 -10 -3 -6 5 -10 19 -10 27 0 76 50 76 78
1 9 3 34 6 54 5 34 3 38 -20 44 -16 4 -32 1 -41 -6 -13 -11 -13 -9 -1 21 15
37 47 49 72 29 11 -10 14 -9 14 6 0 10 16 55 35 101 126 292 61 496 -189 590
-30 12 -84 16 -201 18 -142 1 -166 4 -210 24 -27 12 -58 30 -67 38 -10 9 -18
11 -18 6z m605 -853 c3 -6 -1 -7 -9 -4 -10 4 -16 1 -16 -7 0 -7 -3 -10 -6 -6
-7 7 4 27 16 27 5 0 12 -4 15 -10z m-32 -50 c3 -11 1 -20 -4 -20 -5 0 -9 9 -9
20 0 11 2 20 4 20 2 0 6 -9 9 -20z m27 -40 c0 -5 -2 -10 -4 -10 -3 0 -8 5 -11
10 -3 6 -1 10 4 10 6 0 11 -4 11 -10z"/>
<path d="M1305 2576 c-60 -19 -82 -33 -149 -95 -34 -31 -83 -70 -109 -88 -97
-67 -142 -173 -119 -281 15 -71 104 -248 143 -284 16 -16 38 -28 49 -28 19 0
20 -7 20 -184 l0 -184 -97 -21 c-170 -37 -174 -39 -229 -96 -134 -141 -214
-419 -236 -827 l-12 -207 -80 -4 c-45 -1 109 -4 340 -5 345 -2 429 -5 464 -17
48 -17 103 -19 128 -6 26 13 202 24 202 13 0 -6 -12 -14 -28 -20 -45 -15 -93
-62 -90 -86 3 -20 19 -23 285 -57 251 -31 285 -38 306 -58 38 -35 87 -38 124
-7 17 14 44 28 60 31 15 2 188 9 383 15 270 8 365 14 397 26 31 11 74 14 170
12 l128 -3 1 96 c1 127 7 149 40 149 21 0 25 -3 19 -18 -13 -30 -24 -105 -24
-169 -1 -39 -5 -63 -13 -66 -8 -3 -6 -6 5 -6 9 -1 17 -7 17 -15 0 -34 329 -68
536 -55 189 12 469 82 501 126 7 9 13 36 13 60 l0 43 159 0 c93 0 162 4 166
10 4 6 -54 11 -157 12 l-163 3 -9 40 c-32 151 -64 270 -108 400 -44 131 -86
238 -231 584 -35 85 -107 169 -193 226 -77 51 -224 111 -356 144 -95 24 -109
30 -92 39 10 6 14 12 7 12 -6 0 -14 -4 -18 -9 -3 -5 -36 -20 -73 -33 -53 -18
-87 -23 -167 -22 -88 0 -110 4 -182 33 -141 55 -241 145 -285 254 -9 23 -17
35 -17 27 -1 -57 99 -182 188 -235 28 -16 51 -32 51 -35 0 -3 -42 -18 -92 -33
-208 -63 -337 -151 -372 -252 -41 -118 -79 -169 -164 -224 -101 -64 -285 -121
-393 -121 -40 0 -49 3 -49 18 0 136 -150 232 -362 232 l-58 0 0 45 c0 25 2 45
4 45 2 0 20 -7 39 -15 20 -8 47 -15 59 -14 14 0 17 3 8 5 -76 25 -100 37 -100
52 0 73 -37 112 -105 112 l-35 0 0 74 c0 77 -10 97 -35 76 -12 -10 -15 -9 -15
8 0 27 -25 46 -47 36 -10 -4 -29 -8 -43 -8 -18 -1 -26 -7 -28 -24 -6 -38 -22
-13 -22 34 0 27 -5 46 -12 48 -68 18 -74 22 -100 75 -33 64 -35 100 -10 132
23 28 73 30 102 4 17 -15 20 -31 20 -90 l0 -73 33 -5 c17 -2 35 -3 40 0 4 2 7
33 7 68 0 60 2 65 28 79 39 20 110 99 118 131 7 30 6 30 110 -13 114 -48 213
-67 351 -66 l122 0 4 -25 c4 -23 4 -22 6 5 1 30 4 32 86 59 47 15 88 31 91 36
3 5 -20 9 -50 9 -56 0 -68 8 -42 29 17 14 62 115 71 161 l7 35 -42 -48 c-41
-46 -86 -77 -111 -77 -7 0 3 11 22 25 36 27 69 78 69 107 0 13 -7 10 -29 -13
-48 -48 -76 -40 -222 62 -224 158 -385 209 -524 165z m518 -179 c107 -75 176
-104 209 -86 17 9 18 8 9 -9 -13 -24 -71 -62 -95 -62 -20 0 -21 -19 -1 -26 31
-12 84 8 129 47 l46 40 -18 -47 c-9 -26 -34 -66 -54 -88 -21 -21 -38 -41 -38
-42 0 -2 24 -4 53 -6 l52 -3 -50 -17 c-112 -39 -261 -48 -390 -23 -131 24
-168 43 -190 96 -48 119 3 256 116 313 l52 26 36 -22 c20 -12 80 -53 134 -91z
m-543 -732 c0 -43 4 -75 10 -75 6 0 10 16 10 36 0 35 14 74 28 74 4 0 7 -35 7
-77 l0 -78 53 -3 c75 -4 84 -21 80 -153 l-3 -104 -65 -3 -66 -3 4 71 4 70 -31
0 c-56 0 -100 25 -118 67 -12 30 -14 57 -8 133 3 52 11 99 16 105 17 17 28
-16 22 -62 -4 -29 -2 -43 6 -43 6 0 11 16 11 38 0 52 10 82 26 82 11 0 14 -18
14 -75z m1781 -7 c4 -7 19 -45 34 -85 15 -42 42 -90 66 -116 21 -25 39 -47 39
-49 0 -2 -21 -20 -46 -39 -25 -19 -60 -55 -77 -81 -16 -27 -32 -47 -33 -45 -2
2 -15 46 -29 97 -34 127 -51 278 -35 324 11 34 11 34 43 21 18 -7 35 -19 38
-27z m429 -31 c0 -112 -35 -256 -87 -359 -25 -52 -38 -59 -48 -28 -4 11 -33
54 -65 94 l-58 74 29 21 c32 24 122 141 164 214 17 30 34 47 46 47 17 0 19 -8
19 -63z m-70 43 c0 -5 -8 -10 -17 -10 -15 0 -16 2 -3 10 19 12 20 12 20 0z
m-2253 -47 c-3 -10 -5 -4 -5 12 0 17 2 24 5 18 2 -7 2 -21 0 -30z m1942 -13
c0 -10 -3 -8 -9 5 -12 27 -12 43 0 25 5 -8 9 -22 9 -30z m74 23 c-7 -2 -19 -2
-25 0 -7 3 -2 5 12 5 14 0 19 -2 13 -5z m80 0 c-7 -2 -19 -2 -25 0 -7 3 -2 5
12 5 14 0 19 -2 13 -5z m77 -87 c-17 -24 -51 -63 -75 -86 -39 -39 -46 -42 -61
-29 -23 19 -74 89 -74 102 0 6 13 -9 28 -34 46 -72 54 -75 96 -39 19 18 52 54
72 81 19 27 38 49 40 49 3 0 -9 -20 -26 -44z m-2128 -111 c16 -14 47 -28 69
-31 l39 -7 0 -53 c0 -53 -1 -54 -29 -54 -16 0 -31 -5 -33 -12 -6 -17 -56 -1
-83 26 -13 13 -29 43 -36 66 -11 37 -11 43 4 52 12 6 17 23 18 61 l1 52 10
-37 c5 -21 23 -49 40 -63z m1827 -213 c7 -12 13 -8 29 24 l20 39 12 -45 c6
-25 13 -53 16 -62 3 -9 -6 -38 -19 -65 l-25 -48 -17 40 c-27 65 -64 201 -70
257 -5 47 -2 44 20 -35 14 -49 29 -96 34 -105z m211 136 c0 -4 -21 -8 -47 -8
l-48 1 30 24 c27 22 31 23 47 8 10 -9 18 -20 18 -25z m98 -133 l22 -45 -27
-55 c-15 -30 -30 -55 -34 -55 -4 0 -15 20 -24 44 -16 42 -16 45 4 84 12 23 21
48 21 57 0 28 16 15 38 -30z m-715 -293 c16 -80 28 -298 25 -462 l-3 -185
-254 -3 c-239 -2 -253 -1 -247 15 6 14 5 16 -5 6 -16 -16 -132 -17 -160 -2
-37 19 -9 30 64 25 l72 -5 -69 17 c-38 9 -71 23 -73 29 -7 19 41 26 94 15 26
-6 50 -9 52 -7 6 7 -50 27 -91 32 -40 6 -49 17 -22 27 28 11 74 6 106 -10 23
-12 29 -13 26 -2 -4 13 -53 32 -111 43 -43 9 -16 35 36 35 30 0 38 3 30 11 -8
8 -7 20 3 45 17 39 18 54 4 54 -5 0 -10 -9 -10 -20 0 -28 -21 -70 -36 -70 -7
0 -21 -3 -31 -7 -10 -3 -15 -3 -11 1 4 5 -2 17 -13 29 -35 38 -81 195 -56 197
4 0 52 0 107 0 88 0 100 -2 101 -17 0 -10 11 6 25 35 13 29 30 52 39 52 16 0
11 -21 -21 -81 -8 -17 -13 -33 -11 -35 2 -3 10 9 17 25 10 24 21 32 63 41 108
25 272 116 327 182 21 24 27 23 33 -10z m-498 -116 c46 -20 48 -51 4 -60 -40
-8 -103 -8 -151 0 -30 5 -37 11 -40 35 -3 16 0 31 6 33 26 11 149 5 181 -8z
m-445 -81 c0 -132 102 -389 169 -425 46 -24 18 -30 -150 -30 l-171 0 7 57 c11
89 60 262 116 411 13 33 29 27 29 -13z m2338 -166 c34 -77 60 -144 57 -148
-10 -17 -191 -42 -188 -26 0 6 11 54 22 107 12 54 21 112 21 130 0 39 10 78
19 78 3 -1 34 -64 69 -141z m-2018 -113 c0 -2 -7 -9 -15 -16 -13 -11 -14 -10
-9 4 5 14 24 23 24 12z m-25 -56 c3 -5 1 -10 -4 -10 -6 0 -11 5 -11 10 0 6 2
10 4 10 3 0 8 -4 11 -10z m1361 -96 c-3 -9 -6 -49 -6 -90 l0 -74 -80 0 -80 0
0 29 c0 27 -6 32 -70 58 -38 15 -70 31 -70 34 0 3 35 18 78 32 94 31 238 38
228 11z m-1176 -49 c52 -8 113 -20 135 -26 l40 -12 -104 -48 -103 -49 -27 19
c-43 31 -171 93 -231 112 l-55 18 125 0 c69 1 168 -6 220 -14z m822 -9 c31 -9
76 -25 100 -35 l43 -18 -58 -27 -59 -26 -47 24 c-111 57 -184 71 -359 71 -160
0 -169 5 -44 25 88 14 357 5 424 -14z m-1109 -16 c38 -12 67 -23 65 -25 -1 -1
-34 4 -73 12 -82 17 -213 12 -290 -11 -62 -19 -69 -14 -16 13 89 46 191 49
314 11z m539 14 c-47 -13 -60 -13 -100 0 l-47 14 100 0 100 0 -53 -14z m330
-35 c67 -13 180 -49 192 -60 23 -21 -61 -7 -113 18 -49 24 -70 28 -168 32
-129 4 -219 -12 -388 -66 -60 -20 -111 -35 -112 -34 -32 16 176 94 307 114 55
9 232 6 282 -4z m-824 -47 c74 -20 112 -39 57 -29 -16 3 -112 14 -212 24 -101
10 -183 22 -183 27 0 16 260 -1 338 -22z m797 19 l40 -9 -40 0 c-22 0 -62 3
-90 8 l-50 7 50 1 c28 1 68 -3 90 -7z m-162 -8 c-7 -2 -19 -2 -25 0 -7 3 -2 5
12 5 14 0 19 -2 13 -5z m177 -22 l55 -7 -80 -7 c-150 -13 -404 -17 -360 -6
100 25 274 34 385 20z m-530 -71 c0 -5 -10 -10 -22 -10 -19 0 -20 2 -8 10 19
13 30 13 30 0z"/>
<path d="M2960 2547 c-8 -7 -22 -21 -30 -32 -13 -17 -12 -17 17 3 37 26 55 27
88 6 31 -20 33 -1 3 20 -27 19 -57 20 -78 3z"/>
<path d="M3295 2552 c-32 -6 -85 -33 -85 -43 0 -5 13 -3 30 6 16 8 48 15 71
15 34 0 47 -6 76 -35 20 -20 38 -33 41 -31 4 5 -44 76 -51 76 -1 0 -16 4 -32
8 -17 5 -39 6 -50 4z"/>
<path d="M2991 2451 c-16 -29 -14 -96 3 -110 21 -18 38 19 34 76 -3 50 -20 66
-37 34z"/>
<path d="M3252 2428 c-15 -15 -16 -104 0 -114 19 -12 39 28 36 75 -3 46 -15
60 -36 39z"/>
<path d="M3044 2358 c-15 -23 -51 -82 -80 -130 l-53 -87 32 -19 c18 -11 43
-23 57 -26 19 -5 16 -1 -13 17 -20 13 -40 26 -43 30 -3 3 27 60 66 127 40 67
70 124 67 127 -3 2 -18 -15 -33 -39z"/>
<path d="M2820 2320 c0 -7 -18 -58 -40 -112 -46 -116 -51 -139 -11 -52 36 78
65 164 57 171 -3 4 -6 0 -6 -7z"/>
<path d="M3818 2218 c-8 -70 -28 -130 -55 -160 -18 -20 -63 -24 -81 -6 -17 17
-22 8 -37 -65 -18 -85 -45 -137 -104 -198 -26 -27 -44 -49 -40 -49 4 0 32 27
62 60 53 57 97 143 97 190 0 40 10 48 50 43 32 -5 43 -1 64 20 31 32 58 122
54 184 -3 47 -3 47 -10 -19z"/>
<path d="M3230 2023 c-25 -8 -84 -16 -131 -16 -48 -1 -82 -5 -75 -9 16 -11
134 -10 176 1 95 24 93 24 74 -4 -25 -38 -76 -65 -145 -76 -82 -13 -114 -5
-129 32 -7 16 -16 32 -21 35 -5 2 0 -15 11 -38 l19 -43 83 0 c69 0 90 5 128
25 40 22 90 79 90 101 0 12 -27 10 -80 -8z"/>
<path d="M1583 2010 c-18 -11 -33 -24 -33 -30 0 -5 16 0 35 11 34 20 47 21 88
4 27 -11 20 11 -8 23 -35 16 -45 15 -82 -8z"/>
<path d="M1047 2003 c-11 -10 -8 -61 3 -68 6 -4 10 7 10 24 0 37 13 40 34 9
20 -28 20 -62 1 -78 -21 -18 -19 -47 6 -60 27 -15 38 -4 13 14 -18 14 -18 15
-1 33 21 24 22 55 2 92 -17 34 -51 51 -68 34z"/>
<path d="M1844 1995 c-18 -15 -17 -16 14 -10 24 5 39 2 53 -11 10 -9 19 -13
19 -7 0 14 -34 43 -51 43 -9 0 -24 -7 -35 -15z"/>
<path d="M1982 1893 c-4 -188 -42 -319 -118 -402 -43 -49 -73 -66 -146 -85
-29 -8 -43 -15 -31 -15 41 -2 134 40 173 78 83 79 133 247 127 427 l-3 99 -2
-102z"/>
<path d="M1634 1896 c-3 -8 -4 -29 -2 -48 4 -39 31 -46 36 -9 7 50 -20 95 -34
57z"/>
<path d="M1834 1887 c-10 -28 0 -82 16 -82 11 0 15 12 15 44 0 44 -19 68 -31
38z"/>
<path d="M1762 1765 c2 -14 17 -24 46 -34 36 -11 43 -17 38 -34 -5 -19 -4 -19
11 -4 22 22 3 44 -43 53 -19 3 -39 14 -45 23 -8 14 -9 13 -7 -4z"/>
<path d="M1564 1622 c23 -27 77 -38 119 -24 31 10 30 10 -21 11 -29 1 -67 8
-85 17 l-32 17 19 -21z"/>
</g>
</svg>
